<svg id="Layer_1" data-name="Layer 1" xmlns="http://www.w3.org/2000/svg" width="259.693mm" height="32.312mm" viewBox="0 0 736.137 91.594">
  <g>
    <path d="M0,0H23.337l8.348,47.84h.19L39.938,0H62.99V72.826h-14.8V16.112H48L37.662,72.826H25.329L14.42,16.112h-.19V72.826H0Z" style="fill: #1d1d1b"/>
    <path d="M107.982,72.826h-14.8V66.3h-.19a13.057,13.057,0,0,1-12.332,7.957c-8.728,0-13.376-4.692-13.376-15.3V17.642H82.653V55.281c0,3.979,1.613,6.325,4.459,6.325,2.941,0,5.5-2.448,5.5-7.854V17.642h15.368Z" style="fill: #1d1d1b"/>
    <path d="M125.15,55.281a16.814,16.814,0,0,0,1.044,6.223,4.937,4.937,0,0,0,4.743,2.55c3.6,0,5.5-2.448,5.5-5.61,0-2.55-1.138-5-5.882-6.733-12.617-4.59-18.688-7.242-18.688-18.87,0-11.017,7.21-16.627,19.542-16.627C145.83,16.214,150,23.762,150,31.719v1.836h-13.66V32.534c0-4.794-1.8-6.12-5.028-6.12-4.079,0-5.218,2.143-5.218,5.1,0,9.792,24.57,3.264,24.57,24.684,0,11.12-6.925,18.056-19.636,18.056-13.756,0-19.542-5.509-19.542-16.525V55.281Z" style="fill: #1d1d1b"/>
    <path d="M154.271-.821h15.368V11.827H154.271Zm0,18.463h15.368V72.826H154.271Z" style="fill: #1d1d1b"/>
    <path d="M200.847,38.451c0-8.058-1.707-11.424-5.786-11.424-5.123,0-5.787,6.936-5.787,18.258,0,12.445.664,18.158,5.787,18.158,4.554,0,5.6-3.367,5.786-13.057h14.23c-.095,17.034-6.356,23.869-20.3,23.869-19.352,0-20.869-14.587-20.869-31.01,0-15.5,4.173-27.031,20.869-27.031,16.127,0,20.3,9.078,20.3,22.237Z" style="fill: #1d1d1b"/>
    <path d="M237.272,13.867h-14.23V0h44.4V13.867H253.209V72.826H237.272Z" style="fill: #1d1d1b"/>
    <path d="M270.471,0H285.84V23.66h.19c2.466-5.406,6.545-7.446,11.763-7.446,8.728,0,13.376,4.692,13.376,15.3V72.826H295.8V35.187c0-3.979-1.613-6.325-4.459-6.325-2.94,0-5.5,2.449-5.5,7.855V72.826H270.471Z" style="fill: #1d1d1b"/>
    <path d="M317.049-.821h15.368V11.827H317.049Zm0,18.463h15.368V72.826H317.049Z" style="fill: #1d1d1b"/>
    <path d="M338.3,17.642h14.8V24.17h.19a13.058,13.058,0,0,1,12.332-7.956c8.728,0,13.376,4.692,13.376,15.3V72.826H363.626V35.187c0-3.979-1.613-6.325-4.459-6.325-2.94,0-5.5,2.449-5.5,7.855V72.826H338.3Z" style="fill: #1d1d1b"/>
    <path d="M409.918,17.642h14.23V70.889c0,12.444-5.123,20.707-21.345,20.707-14.894,0-19.258-7.039-19.258-15.3h14.231a5.477,5.477,0,0,0,1.612,3.366,6.1,6.1,0,0,0,3.8,1.122c5.122,0,6.166-3.57,6.166-14.077V63.34h-.191c-2.086,6.324-6.924,8.16-12.142,8.16-11.1,0-14.419-11.832-14.419-27.031,0-13.057,1.612-28.255,14.988-28.255,6.926,0,10.341,3.876,12.143,8.874h.19Zm-6.356,41.822c4.174,0,5.787-3.265,5.787-15.709,0-10.1-1.139-14.893-5.6-14.893-5.027,0-5.786,6.325-5.786,15.4C397.965,55.792,399.388,59.464,403.562,59.464Z" style="fill: #1d1d1b"/>
    <path d="M440.936,0h23.337l8.347,47.84h.19L480.873,0h23.052V72.826h-14.8V16.112h-.189L478.6,72.826H466.265l-10.91-56.714h-.19V72.826H440.936Z" style="fill: #1d1d1b"/>
    <path d="M507.242,45.387c0-16.525,3.415-29.173,21.155-29.173,18.783,0,21.155,12.343,21.155,28.867S546.136,74.255,528.4,74.255C509.614,74.255,507.242,61.912,507.242,45.387Zm21.249-18.36c-4.552,0-5.88,4.794-5.88,18.156,0,13.465,1.328,18.26,5.88,18.26,4.744,0,5.693-4.591,5.693-18.158C534.184,31.616,533.235,27.027,528.491,27.027Z" style="fill: #1d1d1b"/>
    <path d="M579.811,66.094h-.191a10.94,10.94,0,0,1-11.1,8.161c-10.34,0-15.843-7.957-15.843-28.561,0-17.137,2.277-29.48,14.894-29.48,4.269,0,8.917,1.53,11.479,7.446h.189V0H594.61V72.826h-14.8ZM573.929,28.25c-5.6,0-5.882,6.631-5.882,16.627,0,8.875.191,17.341,5.977,17.341,4.553,0,5.5-5.916,5.5-16.627C579.526,35.8,579.147,28.25,573.929,28.25Z" style="fill: #1d1d1b"/>
    <path d="M638.72,72.826h-14.8V66.3h-.19A13.057,13.057,0,0,1,611.4,74.255c-8.728,0-13.376-4.692-13.376-15.3V17.642h15.368V55.281c0,3.979,1.612,6.325,4.459,6.325,2.94,0,5.5-2.448,5.5-7.854V17.642H638.72Z" style="fill: #1d1d1b"/>
    <path d="M642.8,0h15.368V72.826H642.8Z" style="fill: #1d1d1b"/>
    <path d="M662.338,34.574c.1-7.547,2.182-12.138,5.786-14.79s7.969-3.57,14.325-3.57c12.617,0,18.214,4.692,18.214,16.32V60.892c0,4.182,0,9.486,1.8,11.934h-14.8a27.381,27.381,0,0,1-.853-6.324h-.19a12.957,12.957,0,0,1-12.048,7.753c-8.632,0-13.66-4.9-13.66-16.831,0-6.427,2.466-11.833,6.261-14.077s9.486-3.264,13.755-4.488c4.648-1.327,5.5-2.142,5.5-6.325,0-3.366-1.423-5.507-4.839-5.507-4.269,0-5.5,2.753-5.6,7.547ZM680.172,62.83c3.226,0,6.166-2.04,6.166-7.549,0-4.589.1-7.446.1-9.69-4.839,2.754-6.926,2.856-8.349,4.08-1.612,1.326-2.371,3.061-2.371,6.121C675.714,60.178,677.326,62.83,680.172,62.83Z" style="fill: #1d1d1b"/>
    <path d="M706.352,17.642h14.8V25.4h.19c1.992-4.9,5.881-9.181,12.332-9.181a10.865,10.865,0,0,1,2.466.2V31.923a20.116,20.116,0,0,0-4.269-.408c-6.166,0-10.15,2.754-10.15,10V72.826H706.352Z" style="fill: #1d1d1b"/>
  </g>
</svg>
