<?xml version="1.0" encoding="UTF-8"?>
<svg id="Layer_1" xmlns="http://www.w3.org/2000/svg" width="108.0311874mm" height="62.9517496mm" version="1.1" viewBox="0 0 306.2301421 178.4459072">
  <!-- Generator: Adobe Illustrator 30.5.0, SVG Export Plug-In . SVG Version: 2.1.4 Build 167)  -->
  <defs>
    <style>
      .st0 {
        fill: #010101;
      }
    </style>
  </defs>
  <path class="st0" d="M306.1604242,34.8314999c0-7.112613-5.7692427-12.1459864-12.8818557-12.1459864h-60.5751411c-1.2778146,0-3.1858651-.4581957-4.0915041-1.3638347L205.3022125,1.7849169c-.9059858-.9059858-2.8123021-1.3638347-4.0918509-1.3638347h-20.4582141l-10.9113713,12.2748591h-10.9110244L148.0187274.4210822,16.4034767,0c-4.2732562,0-8.37031,1.6943877-11.3914189,4.7151498C1.9923363,7.7359118.2972549,11.8329656.2972549,16.1058749l-.2972549,122.068061c0,10.6817531,4.240305,20.9216127,11.7948115,28.476466,7.5545065,7.5548534,17.7947129,11.7955052,28.476466,11.7955052l253.0020881-.7884019c3.4147896,0,6.6963867-1.3586319,9.110499-3.7772533,2.4182745-2.4134186,3.7765595-5.6901598,3.7765595-9.110499l.0697179.6819173V39.2570729l-.0697179-4.425573ZM38.9074428,164.7694062c-14.6882777,0-26.5958171-11.9071926-26.5958171-26.5958171s11.9075394-26.5958171,26.5958171-26.5958171c14.6886245,0,26.5958171,11.9071926,26.5958171,26.5958171s-11.9071926,26.5958171-26.5958171,26.5958171ZM233.7127761,49.5208655h58.8783254v12.2748591h-58.8783254v-12.2748591ZM233.7127761,67.2514102h58.8783254v12.2748591h-58.8783254v-12.2748591ZM233.7127761,84.9819549h58.8783254v12.2748591h-58.8783254v-12.2748591ZM292.5911014,168.1793397h-58.8783254v-12.2752059h58.8783254v12.2752059ZM292.5911014,150.448795h-58.8783254v-12.2752059h58.8783254v12.2752059ZM292.5911014,132.7182503h-58.8783254v-12.2752059h58.8783254v12.2752059ZM300.7744564,114.9873587h-67.0616804v-12.2748591h67.0616804v12.2748591ZM300.7744564,44.0651798h-67.0616804v-12.2748591h67.0616804v12.2748591Z"/>
</svg>
