<?xml version="1.0" encoding="UTF-8"?>
<svg xmlns="http://www.w3.org/2000/svg" width="40.3144mm" height="128.5mm" viewBox="0 0 114.2771 364.252">
  <g id="Metal_visible" data-name="Metal visible">
    <rect x=".0027" y="-.0164" width="114.2362" height="364.252" fill="#414042"/>
  </g>
  <g id="Gold_-_standalone" data-name="Gold - standalone">
    <g>
      <path d="M67.1912,337.0489c-27.1024-5.9472-57.101-14.7954-54.0844.3807,4.2163,21.2121,104.2712-39.4469,99.9404-9.3952" fill="none" stroke="#d4af37" stroke-linecap="round" stroke-linejoin="round" stroke-width=".25"/>
      <path d="M48.5766,337.0004c27.8382-8.0211,57.5866-18.4359,59.5114-6.979,2.0944,12.4663-11.9202,12.4986-29.7985,9.278" fill="none" stroke="#d4af37" stroke-linecap="round" stroke-linejoin="round" stroke-width=".25"/>
      <path d="M58.3439,336.8074c-27.7442-6.7623-55.8781-15.3948-57.0379-2.0858-1.2829,14.721,21.5139,9.7122,46.3767,2.5625" fill="none" stroke="#d4af37" stroke-linecap="round" stroke-linejoin="round" stroke-width=".25"/>
      <path d="M1.306,308.6369c.7034,32.1828,106.4376-36.1508,110.4535-1.4684,5.7714,49.8423-106.2579-32.9837-98.3544,5.8297,3.6391,17.8711,98.2023-25.6471,99.7398-1.3903,1.7844,28.153-86.4688-8.7682-86.5341,11.9519-.0981,31.1267,76.3005-37.5424,85.1487-4.1302,6.2172,23.4772-10.8946,25.4983-33.3895,21.6793" fill="none" stroke="#d4af37" stroke-linecap="round" stroke-linejoin="round" stroke-width=".25"/>
      <path d="M109.7353,286.2399c.0324,34.2797-114.9123-40.5359-108.5855,7.4787,5.2656,39.9607,106.1895-50.4051,108.5855-7.4787,2.352,42.1389-111.6204-17.7317-108.4293,22.397" fill="none" stroke="#d4af37" stroke-linecap="round" stroke-linejoin="round" stroke-width=".25"/>
      <path d="M17.3885,286.2859c-1.0078-.1022-6.333,1.0054-6.555,4.0989-1.4065,19.6037,67.9129-21.1293,70.7487-5.0081,3.3666,19.1383-43.9841-1.972-64.1938.9092" fill="none" stroke="#d4af37" stroke-linecap="round" stroke-linejoin="round" stroke-width=".25"/>
    </g>
    <g>
      <path d="M43.1809,149.9384c-.0488.9243-.6304,1.3799-1.751,1.3799-.6934,0-1.1484-.1963-1.4497-.6162-.231-.3223-.3223-.7148-.3223-1.4219v-1.0645c0-.7778.1055-1.1841.3926-1.5132.3149-.3643.7354-.5254,1.3794-.5254,1.0786,0,1.6318.4624,1.6812,1.415l-.8403.063c-.063-.4971-.3296-.7354-.8267-.7354-.6445,0-.8687.3569-.8687,1.3589v.9385c0,1.0083.2241,1.3584.8828,1.3584.5112,0,.7983-.2378.8682-.7354l.8545.0981Z" fill="#d4af37"/>
      <path d="M43.6477,146.2406h.9175l1.1626,3.7607,1.1558-3.7607h.9175l-1.6812,5.0005h-.791l-1.6812-5.0005Z" fill="#d4af37"/>
      <path d="M51.0408,146.1005h.8618l-1.6743,5.2808h-.8613l1.6738-5.2808Z" fill="#d4af37"/>
      <path d="M54.6595,150.2538l-.3223.9873h-.9946l1.814-5.0005h.8896l1.814,5.0005h-.9946l-.3149-.9873h-1.8911ZM55.6048,147.3329l-.7285,2.1851h1.4502l-.7217-2.1851Z" fill="#d4af37"/>
      <path d="M59.2097,147.6484v1.9541c0,.7002.1611.9731.5674.9731.4482,0,.6089-.2939.6089-1.0786v-1.8486h.8687v3.5928h-.6025l-.105-.3359c-.1958.2939-.4619.4131-.9385.4131-.6094,0-1.0015-.2314-1.1626-.6934-.0698-.1963-.105-.4834-.105-.9248v-2.0518h.8687Z" fill="#d4af37"/>
      <path d="M64.4954,150.9892l-.0493.042c-.2378.21-.4829.2871-.9175.2871-.9453,0-1.3516-.4834-1.3516-1.6108v-.5254c0-1.1206.4062-1.6108,1.3379-1.6108.252,0,.4272.0352.6372.126q.042.0142.1328.084c.0283.0142.0283.021.0635.0352v-1.5757h.8682v5.0005h-.6724l-.0488-.252ZM63.0384,149.6445c0,.6724.2031.9731.6514.9731s.6587-.2588.6587-.8193v-.7075c0-.5601-.2104-.8262-.6587-.8262s-.6514.3013-.6514.9805v.3994Z" fill="#d4af37"/>
      <path d="M66.2649,146.1982h.8682v.8896h-.8682v-.8896ZM66.2649,147.6484h.8682v3.5928h-.8682v-3.5928Z" fill="#d4af37"/>
      <path d="M68.0638,149.1752c0-1.1279.4624-1.604,1.5547-1.604,1.0859,0,1.5479.4761,1.5479,1.604v.5391c0,1.1274-.4619,1.604-1.5479,1.604-1.0923,0-1.5547-.4766-1.5547-1.604v-.5391ZM70.2981,149.2309c0-.686-.1963-.9663-.6797-.9663-.4902,0-.686.2803-.686.9663v.4204c0,.6865.1958.9663.686.9663.4834,0,.6797-.2798.6797-.9663v-.4204Z" fill="#d4af37"/>
    </g>
    <g>
      <path d="M46.4827,276.8827h-.9175v-5.001h1.6812c.6934,0,1.0645.1123,1.3447.3994.2588.2803.3711.6367.3711,1.1904,0,.6025-.1333.9873-.4414,1.2607-.2729.2451-.6372.3428-1.2744.3428h-.7637v1.8076ZM47.2464,274.3329c.5742,0,.8052-.252.8052-.8613s-.231-.8545-.8052-.8545h-.7773v1.7158h.7773Z" fill="#d4af37"/>
      <path d="M50.5428,273.29v1.9541c0,.7002.1611.9727.5674.9727.4482,0,.6089-.2939.6089-1.0781v-1.8486h.8687v3.5928h-.6025l-.105-.3359c-.1958.2939-.4619.4131-.9385.4131-.6094,0-1.0015-.2314-1.1626-.6934-.0698-.1963-.105-.4834-.105-.9248v-2.0518h.8687Z" fill="#d4af37"/>
      <path d="M54.4837,271.8818v3.5859c-.0073.5459.1401.7148.6162.707h.1333v.708h-.1685c-1.1763,0-1.4497-.2803-1.4497-1.499v-3.502h.8687Z" fill="#d4af37"/>
      <path d="M56.0442,275.9023c.21.2939.3853.3711.8125.3711.4829,0,.7144-.1475.7144-.4551,0-.1543-.0703-.2666-.1963-.3154q-.1118-.0488-.5742-.1055c-.8896-.1113-1.2046-.3848-1.2046-1.043,0-.7354.4624-1.1416,1.2954-1.1416.6724,0,1.1138.21,1.4082.6865l-.6445.3711c-.189-.2803-.3643-.3711-.7002-.3711-.3433,0-.5327.1465-.5327.4131,0,.2588.1333.3428.6235.3984.5605.0635.8125.127,1.0225.2734.2173.1543.3291.4482.3291.8477,0,.7705-.4829,1.1279-1.5059,1.1279-.749,0-1.2393-.2246-1.4844-.6865l.6372-.3711Z" fill="#d4af37"/>
      <path d="M59.9578,275.412c0,.5674.2661.8682.7773.8682.3433,0,.5532-.1055.7422-.3711l.6377.3711c-.3013.4834-.7217.6797-1.478.6797-1.0854,0-1.5547-.5186-1.5547-1.7236v-.252c0-1.2539.4482-1.7715,1.541-1.7715s1.5405.5176,1.5405,1.7715v.3154h-2.2061v.1123ZM61.3445,274.6972v-.0771c0-.4902-.2451-.7559-.7002-.7559-.4414,0-.6934.2725-.6934.7559v.0771h1.3936Z" fill="#d4af37"/>
      <path d="M63.4085,275.9023c.21.2939.3853.3711.8125.3711.4829,0,.7144-.1475.7144-.4551,0-.1543-.0703-.2666-.1963-.3154q-.1118-.0488-.5742-.1055c-.8896-.1113-1.2046-.3848-1.2046-1.043,0-.7354.4624-1.1416,1.2954-1.1416.6724,0,1.1138.21,1.4082.6865l-.6445.3711c-.189-.2803-.3643-.3711-.7002-.3711-.3433,0-.5327.1465-.5327.4131,0,.2588.1333.3428.6235.3984.5605.0635.8125.127,1.0225.2734.2173.1543.3291.4482.3291.8477,0,.7705-.4829,1.1279-1.5059,1.1279-.749,0-1.2393-.2246-1.4844-.6865l.6372-.3711Z" fill="#d4af37"/>
    </g>
    <g>
      <path d="M55.1848,228.5243c-.0488.9243-.6304,1.3799-1.751,1.3799-.6934,0-1.1484-.1963-1.4497-.6162-.231-.3223-.3223-.7148-.3223-1.4219v-1.0645c0-.7778.1055-1.1841.3926-1.5132.3149-.3643.7354-.5254,1.3794-.5254,1.0786,0,1.6318.4624,1.6812,1.415l-.8403.063c-.063-.4971-.3296-.7354-.8267-.7354-.6445,0-.8687.3569-.8687,1.3589v.9385c0,1.0083.2241,1.3584.8828,1.3584.5112,0,.7983-.2378.8682-.7354l.8545.0981Z" fill="#d4af37"/>
      <path d="M55.6516,224.8266h.9175l1.1626,3.7607,1.1558-3.7607h.9175l-1.6812,5.0005h-.791l-1.6812-5.0005Z" fill="#d4af37"/>
    </g>
  </g>
  <g id="White-standalone">
    <g>
      <path d="M38.388,1.9374l.9478,4.3633h.0186l.957-4.3633h1.9785v6.1812h-1.2261V3.184h-.0186l-1.1802,4.9346h-1.0405l-1.1797-4.9346h-.0186v4.9346h-1.2266V1.9374h1.9883Z" fill="#fff"/>
      <path d="M45.7556,7.5732c-.1367.231-.313.3955-.5298.4937-.2168.0977-.4644.147-.7432.147-.4087,0-.7231-.0996-.9429-.2988-.2202-.1987-.3301-.5322-.3301-.9995v-3.4541h1.2822v3.2114c0,.2427.0435.4111.1299.5063.0869.0952.2261.1431.4185.1431.4517,0,.6777-.2568.6777-.7705v-3.0903h1.2822v4.6572h-1.2261v-.5454h-.0186Z" fill="#fff"/>
      <path d="M48.7932,6.7509c0,.2021.0571.3647.1719.4888.1143.1245.2803.1865.4971.1865.1982,0,.356-.0464.4736-.1387s.1768-.231.1768-.4155c0-.1499-.0464-.2642-.1396-.3418-.0928-.0781-.2012-.1401-.3252-.186l-.9009-.3032c-.353-.1152-.6196-.2783-.7988-.4893-.1802-.2104-.2695-.4805-.2695-.8091,0-.1904.0337-.3711.1021-.541.0679-.1704.1768-.3188.3252-.4463.1484-.1265.3389-.2275.5713-.3027s.5127-.1128.8408-.1128c.582,0,1.0127.1157,1.2915.3467s.418.5566.418.978v.1904h-1.1519c0-.2422-.042-.4199-.1255-.5322-.0835-.1128-.231-.1689-.4414-.1689-.1611,0-.3018.042-.4229.1255-.1206.084-.1812.2095-.1812.3765,0,.1157.0386.2197.1162.312s.2246.1699.4414.2334l.771.2427c.4023.127.6875.293.855.4976.167.2051.2505.4834.2505.8354,0,.248-.0464.4629-.1392.645-.0928.1816-.2217.333-.3857.4546-.1641.1211-.3594.2075-.585.2593-.2266.0522-.4756.0781-.748.0781-.3594,0-.6582-.0317-.8965-.0952-.2388-.0635-.4272-.1587-.5669-.2856-.1392-.127-.2368-.2812-.2925-.4634-.0557-.1816-.0835-.3853-.0835-.6099v-.1646h1.1519v.1558Z" fill="#fff"/>
      <path d="M53.3084,1.8686v1.0215h-1.2822v-1.0215h1.2822ZM53.3084,3.4614v4.6572h-1.2822V3.4614h1.2822Z" fill="#fff"/>
      <path d="M56.5926,4.8031c-.0156-.1099-.0435-.2095-.084-.2988-.04-.0894-.0972-.1616-.1719-.2163-.0742-.0547-.1733-.0825-.2969-.0825-.1553,0-.2822.0337-.3813.0996-.0991.0664-.1733.1646-.2227.2944-.0498.1299-.0835.2944-.1025.4937-.0186.1987-.0278.4341-.0278.7056,0,.2886.0093.5352.0278.7397.019.2051.0527.374.1025.5068.0493.1328.1191.229.209.29.0898.0605.2056.0908.3481.0908.2168,0,.375-.0869.4741-.2598.0986-.1733.1484-.4502.1484-.8311h1.2266c0,.6118-.1475,1.0776-.4414,1.3979-.2944.3203-.7822.4805-1.4634.4805-.3218,0-.6025-.0361-.8408-.1084-.2383-.0718-.4365-.2017-.5942-.3892-.1582-.1875-.2773-.439-.3579-.7534s-.1206-.7056-.1206-1.1729c0-.479.0493-.876.1484-1.1904s.2383-.5654.418-.7529.3936-.3188.6411-.394.5205-.1128.8179-.1128c.5942,0,1.042.1621,1.3423.4849.3003.3232.4507.7617.4507,1.3159h-1.2266c0-.1152-.0078-.228-.0229-.3374Z" fill="#fff"/>
      <path d="M63.8992,2.9589h-1.4497v5.1597h-1.3374V2.9589h-1.4497v-1.0215h4.2368v1.0215Z" fill="#fff"/>
      <path d="M65.72,1.9374v2h.0186c.2476-.3984.6533-.5977,1.2168-.5977.4092,0,.7231.104.9434.312.2197.2075.3296.5454.3296,1.0127v3.4541h-1.2822v-3.2119c0-.2422-.043-.4111-.1299-.5063s-.2261-.1426-.418-.1426c-.4521,0-.6782.2568-.6782.7705v3.0903h-1.2822V1.9374h1.2822Z" fill="#fff"/>
      <path d="M70.4114,1.8686v1.0215h-1.2822v-1.0215h1.2822ZM70.4114,3.4614v4.6572h-1.2822V3.4614h1.2822Z" fill="#fff"/>
      <path d="M72.5393,3.4614v.5454h.0186c.1362-.231.3125-.3999.5293-.5068.2168-.1064.4648-.1602.7432-.1602.4092,0,.7231.104.9434.312.2197.2075.3296.5454.3296,1.0127v3.4541h-1.2822v-3.2119c0-.2422-.043-.4111-.1299-.5063s-.2261-.1426-.418-.1426c-.4521,0-.6782.2568-.6782.7705v3.0903h-1.2822V3.4614h1.2266Z" fill="#fff"/>
      <path d="M79.7019,7.8847c0,.6001-.1597,1.0503-.4785,1.3506-.3188.2998-.853.4502-1.6025.4502-.5449,0-.9648-.1084-1.2588-.3247-.2944-.2163-.4414-.5234-.4414-.9219h1.2266c0,.1499.0649.2686.1948.355.062.04.1284.0723.1997.0952s.147.0347.2275.0347c.2603,0,.4429-.0781.5483-.2339s.1577-.3491.1577-.5801v-.6147h-.0186c-.1299.1733-.2896.312-.478.4155-.1895.104-.3857.1562-.5903.1562-.5078,0-.8901-.1807-1.147-.541-.2573-.3608-.3857-.9653-.3857-1.814,0-.271.0171-.5479.0513-.8311.0337-.2827.105-.5381.2134-.7661s.2661-.4141.4741-.5581c.207-.1445.4844-.2168.8311-.2168.1797,0,.3657.0464.5576.1387s.3501.2598.4736.502h.0186v-.519h1.2266v4.4233ZM77.1609,6.3959c.0156.144.0464.2725.0928.3853.0469.1123.1118.2021.1953.2681.0835.0664.1934.0996.3296.0996s.2495-.0332.3394-.0996c.0898-.0659.1611-.1567.2139-.2725.0522-.1152.0894-.2554.1113-.4199.0215-.1646.0322-.3447.0322-.541,0-.5654-.0479-.9668-.1436-1.2031-.0962-.2368-.271-.355-.5249-.355-.1426,0-.2573.0288-.3438.0864-.0869.0576-.1553.1514-.2046.2812-.0498.1299-.082.3032-.0977.5195s-.0229.4805-.0229.792c0,.1616.0073.3149.0229.459Z" fill="#fff"/>
      <path d="M84.3284,1.9374l.9478,4.3633h.0186l.957-4.3633h1.9785v6.1812h-1.2261V3.184h-.0186l-1.1802,4.9346h-1.0405l-1.1797-4.9346h-.0186v4.9346h-1.2266V1.9374h1.9883Z" fill="#fff"/>
      <path d="M89.0852,4.7338c.0679-.3057.1797-.561.3345-.7661s.3579-.3608.6084-.4678c.251-.1064.5591-.1602.9243-.1602.3843-.0054.7031.042.957.1431s.4556.2554.604.4634c.1484.2075.2539.4644.3159.77.0615.3062.0928.6641.0928,1.0737,0,.3979-.0342.75-.1021,1.0562-.0684.3057-.1797.561-.3345.7661s-.3579.3564-.6084.4546c-.251.0977-.5591.147-.9248.147-.3838.0059-.7026-.0391-.9565-.1343-.2544-.0952-.4556-.2451-.604-.4502-.1484-.2046-.2539-.4614-.3159-.7705-.062-.3086-.0928-.665-.0928-1.0688,0-.3984.0337-.75.1021-1.0562ZM90.284,6.4477c.0122.2021.0415.3755.0879.5195.0464.1445.1162.2568.209.3374.0933.0811.2168.1216.3716.1216.2603,0,.4399-.127.5391-.3809s.1484-.6724.1484-1.2554-.0493-1.0015-.1484-1.2554-.2788-.3809-.5391-.3809c-.1548,0-.2783.0405-.3716.1211-.0928.0811-.1626.1934-.209.3379-.0464.144-.0757.3174-.0879.519-.0127.2021-.019.4214-.019.6582s.0063.4561.019.6577Z" fill="#fff"/>
      <path d="M96.1555,7.6249c-.1426.2197-.3022.3726-.4785.459-.1768.0864-.395.1299-.6553.1299-.5264,0-.9136-.1875-1.1611-.5625-.248-.3755-.3716-.9956-.3716-1.8613s.1235-1.4902.3716-1.8745c.2476-.3833.6348-.5757,1.1611-.5757.2417,0,.4478.0464.6182.1387.1699.0923.3232.231.4595.4155h.0186v-1.9565h1.2822v6.1812h-1.2261v-.4937h-.0186ZM94.8963,6.9369c.084.2568.2651.3853.5439.3853.2847,0,.4688-.1284.5527-.3853.0835-.2568.125-.6392.125-1.147s-.0415-.8901-.125-1.147c-.084-.2568-.2681-.3853-.5527-.3853-.2788,0-.46.1284-.5439.3853-.0835.2568-.125.6392-.125,1.147s.0415.8901.125,1.147Z" fill="#fff"/>
      <path d="M100.8006,7.5732c-.1367.231-.313.3955-.5298.4937-.2168.0977-.4644.147-.7432.147-.4087,0-.7231-.0996-.9429-.2988-.2202-.1987-.3301-.5322-.3301-.9995v-3.4541h1.2822v3.2114c0,.2427.0435.4111.1299.5063.0869.0952.2261.1431.4185.1431.4517,0,.6777-.2568.6777-.7705v-3.0903h1.2822v4.6572h-1.2261v-.5454h-.0186Z" fill="#fff"/>
      <path d="M104.2283,1.9374v6.1812h-1.2822V1.9374h1.2822Z" fill="#fff"/>
      <path d="M105.1204,4.7773c0-.2715.0464-.498.1396-.6797.0928-.1821.2183-.3291.376-.4414.1582-.1128.3438-.1934.5576-.2427.2134-.0488.4414-.0737.6826-.0737.3843,0,.6938.0347.9292.104s.418.1675.5483.2944c.1299.127.2183.2783.2646.4546.0464.1758.0693.3677.0693.5757v2.4497c0,.2192.0107.3896.0327.5107.0215.1211.0635.251.1255.3896h-1.2266c-.043-.0747-.0757-.1543-.0972-.2383-.022-.0835-.042-.1655-.0605-.2466h-.0186c-.1489.2427-.3208.3999-.5156.4717-.1953.0723-.4478.1084-.7573.1084-.2227,0-.4116-.0361-.5664-.1084-.1553-.0718-.2788-.1714-.3716-.2983-.0933-.127-.1611-.27-.2046-.4287s-.0649-.3159-.0649-.4717c0-.2192.0244-.4082.0742-.5669.0493-.1587.1255-.2944.2275-.4072.1021-.1123.2324-.2061.3901-.2812.1582-.0747.3486-.1411.5713-.1992l.7246-.1816c.1924-.0459.3252-.1094.3999-.1904.0742-.0806.1113-.1992.1113-.355,0-.1787-.0449-.3188-.1348-.4199-.0898-.1006-.2432-.1514-.46-.1514-.1982,0-.3467.0552-.4458.1646-.0991.1099-.1484.2568-.1484.4414v.1299h-1.1523v-.1123ZM107.1829,5.9413c-.0991.0376-.189.0649-.2695.0825-.2598.0518-.4458.1382-.5571.2593-.1118.1216-.1675.2856-.1675.4937,0,.1787.0371.332.1118.459.0742.127.1978.1904.3716.1904.0864,0,.1763-.0132.269-.0391.0933-.0259.1782-.0679.2559-.1255.0771-.0576.1406-.1328.1904-.2251.0493-.0923.0742-.2021.0742-.3291v-.9175c-.0869.0635-.1797.1138-.2788.1514Z" fill="#fff"/>
      <path d="M110.8245,3.4614v.623h.0186c.1299-.2251.2881-.4053.4736-.541.186-.1353.4121-.2036.6782-.2036.0371,0,.0757.002.1162.0044.04.0029.0791.0073.1162.0132v1.1426c-.0684-.0054-.1348-.0098-.1997-.0127s-.1318-.0044-.1997-.0044c-.1118,0-.2231.0142-.3345.043-.1118.0293-.2139.0767-.3066.1431s-.1675.1528-.2231.2598-.0835.2378-.0835.3936v2.7964h-1.2822V3.4614h1.2266Z" fill="#fff"/>
    </g>
    <path d="M92.1531,135.5839l2.2061-3.873h-2.0869v-.6162h2.9272v.5112l-2.2061,3.873h2.3115v.6162h-3.1519v-.5112Z" fill="#fff"/>
    <path d="M16.1629,131.0947h.8267l1.0435,1.8208.9805-1.8208h.7915l-1.3867,2.4653,1.478,2.5352h-.8267l-1.1484-1.9961-1.0786,1.9961h-.7915l1.4849-2.6406-1.373-2.3599Z" fill="#fff"/>
    <path d="M55.2366,134.2875l-1.5615-3.1934h.791l1.1489,2.4443,1.1416-2.4443h.7915l-1.562,3.1934v1.8071h-.7495v-1.8071Z" fill="#fff"/>
    <g>
      <rect x="47.7301" y="337.4893" width="3.3902" height="2.8295" transform="translate(-289.4789 388.3293) rotate(-90)" fill="#fff"/>
      <rect x="51.6208" y="337.4893" width="3.3902" height="2.8295" transform="translate(-285.5883 392.22) rotate(-90)" fill="#fff"/>
      <rect x="55.5119" y="337.4888" width="3.3891" height="2.8295" transform="translate(-281.6971 396.1101) rotate(-90)" fill="#fff"/>
      <rect x="59.0179" y="337.8735" width="4.1584" height="2.8295" transform="translate(-278.1912 400.3854) rotate(-90)" fill="#fff"/>
      <rect x="63.2932" y="337.4888" width="3.3891" height="2.8295" transform="translate(-273.9159 403.8913) rotate(-90)" fill="#fff"/>
      <rect x="67.1833" y="337.4893" width="3.3902" height="2.8295" transform="translate(-270.0258 407.7825) rotate(-90)" fill="#fff"/>
      <rect x="71.0739" y="337.4893" width="3.3902" height="2.8295" transform="translate(-266.1351 411.6731) rotate(-90)" fill="#fff"/>
      <rect x="74.5804" y="337.8735" width="4.1584" height="2.8295" transform="translate(-262.6286 415.9479) rotate(-90)" fill="#fff"/>
    </g>
    <path d="M70.6046,260.8339c-2.5679,0-4.6572,2.0894-4.6572,4.6572s2.0894,4.6572,4.6572,4.6572,4.6572-2.0894,4.6572-4.6572-2.0894-4.6572-4.6572-4.6572ZM72.8663,266.4682l-1.9966,1.9966c-.0732.0732-.1689.1099-.2651.1099s-.1919-.0366-.2651-.1099l-1.9966-1.9966c-.1465-.1465-.1465-.3838,0-.5303s.3838-.1465.5303,0l1.3306,1.3306v-4.4858c0-.207.168-.375.375-.375s.375.168.375.375v4.5376l1.3823-1.3823c.1465-.1465.3838-.1465.5303,0s.1465.3838,0,.5303Z" fill="#fff"/>
    <path d="M98.9793,260.8339c-2.5679,0-4.6572,2.0894-4.6572,4.6572s2.0894,4.6572,4.6572,4.6572,4.6572-2.0894,4.6572-4.6572-2.0894-4.6572-4.6572-4.6572ZM101.241,266.4682l-1.9966,1.9966c-.0732.0732-.1689.1099-.2651.1099s-.1919-.0366-.2651-.1099l-1.9966-1.9966c-.1465-.1465-.1465-.3838,0-.5303s.3838-.1465.5303,0l1.3306,1.3306v-4.4858c0-.207.168-.375.375-.375s.375.168.375.375v4.5376l1.3823-1.3823c.1465-.1465.3838-.1465.5303,0s.1465.3838,0,.5303Z" fill="#fff"/>
    <path d="M70.6046,222.9018c-2.5679,0-4.6572,2.0894-4.6572,4.6572s2.0894,4.6572,4.6572,4.6572,4.6572-2.0894,4.6572-4.6572-2.0894-4.6572-4.6572-4.6572ZM72.8663,228.5361l-1.9966,1.9966c-.0732.0732-.1689.1099-.2651.1099s-.1919-.0366-.2651-.1099l-1.9966-1.9966c-.1465-.1465-.1465-.3838,0-.5303s.3838-.1465.5303,0l1.3306,1.3306v-4.4858c0-.207.168-.375.375-.375s.375.168.375.375v4.5376l1.3823-1.3823c.1465-.1465.3838-.1465.5303,0s.1465.3838,0,.5303Z" fill="#fff"/>
    <path d="M98.9793,222.9018c-2.5679,0-4.6572,2.0894-4.6572,4.6572s2.0894,4.6572,4.6572,4.6572,4.6572-2.0894,4.6572-4.6572-2.0894-4.6572-4.6572-4.6572ZM101.241,228.5361l-1.9966,1.9966c-.0732.0732-.1689.1099-.2651.1099s-.1919-.0366-.2651-.1099l-1.9966-1.9966c-.1465-.1465-.1465-.3838,0-.5303s.3838-.1465.5303,0l1.3306,1.3306v-4.4858c0-.207.168-.375.375-.375s.375.168.375.375v4.5376l1.3823-1.3823c.1465-.1465.3838-.1465.5303,0s.1465.3838,0,.5303Z" fill="#fff"/>
    <path d="M70.6046,183.3266c-2.5679,0-4.6572,2.0894-4.6572,4.6572s2.0894,4.6572,4.6572,4.6572,4.6572-2.0894,4.6572-4.6572-2.0894-4.6572-4.6572-4.6572ZM72.8663,188.9609l-1.9966,1.9966c-.0732.0732-.1689.1099-.2651.1099s-.1919-.0366-.2651-.1099l-1.9966-1.9966c-.1465-.1465-.1465-.3838,0-.5303s.3838-.1465.5303,0l1.3306,1.3306v-4.4858c0-.207.168-.375.375-.375s.375.168.375.375v4.5376l1.3823-1.3823c.1465-.1465.3838-.1465.5303,0s.1465.3838,0,.5303Z" fill="#fff"/>
    <path d="M98.9793,183.3266c-2.5679,0-4.6572,2.0894-4.6572,4.6572s2.0894,4.6572,4.6572,4.6572,4.6572-2.0894,4.6572-4.6572-2.0894-4.6572-4.6572-4.6572ZM101.241,188.9609l-1.9966,1.9966c-.0732.0732-.1689.1099-.2651.1099s-.1919-.0366-.2651-.1099l-1.9966-1.9966c-.1465-.1465-.1465-.3838,0-.5303s.3838-.1465.5303,0l1.3306,1.3306v-4.4858c0-.207.168-.375.375-.375s.375.168.375.375v4.5376l1.3823-1.3823c.1465-.1465.3838-.1465.5303,0s.1465.3838,0,.5303Z" fill="#fff"/>
    <g>
      <polyline points="10.0135 264.4927 12.0101 262.4961 14.0066 264.4927" fill="none" stroke="#fff" stroke-linecap="round" stroke-linejoin="round" stroke-width=".75"/>
      <g>
        <line x1="12.0359" y1="262.9367" x2="12.0359" y2="267.9131" fill="none" stroke="#fff" stroke-linecap="round" stroke-linejoin="round" stroke-width=".75"/>
        <circle cx="12.0101" cy="265.2046" r="4.9072" fill="none" stroke="#fff" stroke-miterlimit="10" stroke-width=".5"/>
      </g>
    </g>
    <g>
      <g>
        <line x1="39.8993" y1="262.9367" x2="39.8993" y2="267.9131" fill="none" stroke="#fff" stroke-miterlimit="10" stroke-width=".5"/>
        <polyline points="37.8769 264.4927 39.8735 262.4961 41.87 264.4927" fill="none" stroke="#fff" stroke-linecap="round" stroke-linejoin="round" stroke-width=".75"/>
      </g>
      <circle cx="39.8735" cy="265.2046" r="4.9072" fill="none" stroke="#fff" stroke-miterlimit="10" stroke-width=".5"/>
    </g>
    <g>
      <polyline points="10.0135 226.5607 12.0101 224.5641 14.0066 226.5607" fill="none" stroke="#fff" stroke-linecap="round" stroke-linejoin="round" stroke-width=".75"/>
      <g>
        <line x1="12.0359" y1="225.0047" x2="12.0359" y2="229.9811" fill="none" stroke="#fff" stroke-linecap="round" stroke-linejoin="round" stroke-width=".75"/>
        <circle cx="12.0101" cy="227.2726" r="4.9072" fill="none" stroke="#fff" stroke-miterlimit="10" stroke-width=".5"/>
      </g>
    </g>
    <g>
      <g>
        <line x1="39.8993" y1="225.0047" x2="39.8993" y2="229.9811" fill="none" stroke="#fff" stroke-linecap="round" stroke-linejoin="round" stroke-width=".75"/>
        <polyline points="37.8769 226.5607 39.8735 224.5641 41.87 226.5607" fill="none" stroke="#fff" stroke-linecap="round" stroke-linejoin="round" stroke-width=".75"/>
      </g>
      <circle cx="39.8735" cy="227.2726" r="4.9072" fill="none" stroke="#fff" stroke-miterlimit="10" stroke-width=".5"/>
    </g>
    <g>
      <polyline points="10.0135 186.9856 12.0101 184.9891 14.0066 186.9856" fill="none" stroke="#fff" stroke-linecap="round" stroke-linejoin="round" stroke-width=".75"/>
      <g>
        <line x1="12.0359" y1="185.4297" x2="12.0359" y2="190.4061" fill="none" stroke="#fff" stroke-linecap="round" stroke-linejoin="round" stroke-width=".75"/>
        <circle cx="12.0101" cy="187.6976" r="4.9072" fill="none" stroke="#fff" stroke-linecap="round" stroke-linejoin="round" stroke-width=".5"/>
      </g>
    </g>
    <g>
      <g>
        <line x1="39.8993" y1="185.4297" x2="39.8993" y2="190.4061" fill="none" stroke="#fff" stroke-linecap="round" stroke-linejoin="round" stroke-width=".75"/>
        <polyline points="37.8769 186.9856 39.8735 184.9891 41.87 186.9856" fill="none" stroke="#fff" stroke-linecap="round" stroke-linejoin="round" stroke-width=".75"/>
      </g>
      <circle cx="39.8735" cy="187.6976" r="4.9072" fill="none" stroke="#fff" stroke-miterlimit="10" stroke-width=".5"/>
    </g>
    <g>
      <line x1="26.4155" y1="26.1768" x2="28.2925" y2="28.0538" fill="none" stroke="#fff" stroke-miterlimit="10" stroke-width=".5"/>
      <line x1="83.2191" y1="27.7251" x2="84.9151" y2="26.0292" fill="none" stroke="#fff" stroke-miterlimit="10" stroke-width=".5"/>
      <line x1="26.4661" y1="84.3704" x2="28.1621" y2="82.6744" fill="none" stroke="#fff" stroke-miterlimit="10" stroke-width=".5"/>
      <path d="M35.2902,91.2679c-12.5186-7.1113-20.9631-20.5653-20.9631-35.9916,0-22.8449,18.5195-41.3644,41.3644-41.3644s41.3644,18.5195,41.3644,41.3644c0,15.1852-8.1826,28.4593-20.3792,35.6535" fill="none" stroke="#fff" stroke-miterlimit="10" stroke-width=".5"/>
      <line x1="55.6915" y1="16.3221" x2="55.6915" y2="13.9119" fill="none" stroke="#fff" stroke-miterlimit="10" stroke-width=".5"/>
      <line x1="14.3271" y1="55.2763" x2="17.1712" y2="55.2763" fill="none" stroke="#fff" stroke-miterlimit="10" stroke-width=".5"/>
      <line x1="94.565" y1="55.2763" x2="97.0558" y2="55.2763" fill="none" stroke="#fff" stroke-miterlimit="10" stroke-width=".5"/>
      <line x1="82.9249" y1="82.6746" x2="84.8019" y2="84.5516" fill="none" stroke="#fff" stroke-miterlimit="10" stroke-width=".5"/>
      <line x1="34.0999" y1="93.4214" x2="35.3776" y2="91.1715" fill="none" stroke="#fff" stroke-miterlimit="10" stroke-width=".5"/>
      <line x1="77.8888" y1="93.2002" x2="76.5148" y2="90.8831" fill="none" stroke="#fff" stroke-miterlimit="10" stroke-width=".5"/>
    </g>
    <g>
      <path d="M46.6707,127.2612c-2.2476-2.2734-3.6353-5.3988-3.6353-8.8483,0-6.951,5.6349-12.5859,12.5859-12.5859s12.5859,5.6349,12.5859,12.5859c0,3.4353-1.3763,6.5492-3.6077,8.8203" fill="none" stroke="#fff" stroke-miterlimit="10" stroke-width=".5"/>
      <line x1="43.035" y1="118.3137" x2="44.761" y2="118.3137" fill="none" stroke="#fff" stroke-miterlimit="10" stroke-width=".5"/>
      <line x1="46.7878" y1="109.4214" x2="48.0184" y2="110.652" fill="none" stroke="#fff" stroke-miterlimit="10" stroke-width=".5"/>
      <line x1="66.4813" y1="118.3137" x2="68.1849" y2="118.3137" fill="none" stroke="#fff" stroke-miterlimit="10" stroke-width=".5"/>
      <line x1="63.2478" y1="110.674" x2="64.4648" y2="109.457" fill="none" stroke="#fff" stroke-miterlimit="10" stroke-width=".5"/>
      <line x1="46.5618" y1="127.37" x2="47.9063" y2="126.0155" fill="none" stroke="#fff" stroke-miterlimit="10" stroke-width=".5"/>
      <line x1="55.6775" y1="107.5447" x2="55.6775" y2="105.8269" fill="none" stroke="#fff" stroke-miterlimit="10" stroke-width=".5"/>
      <line x1="63.3701" y1="126.0134" x2="64.7013" y2="127.3413" fill="none" stroke="#fff" stroke-miterlimit="10" stroke-width=".5"/>
    </g>
    <g>
      <path d="M8.9447,127.2612c-2.2476-2.2734-3.6353-5.3988-3.6353-8.8483,0-6.951,5.6349-12.5859,12.5859-12.5859s12.5859,5.6349,12.5859,12.5859c0,3.4353-1.3763,6.5492-3.6077,8.8203" fill="none" stroke="#fff" stroke-miterlimit="10" stroke-width=".5"/>
      <line x1="5.309" y1="118.3137" x2="7.035" y2="118.3137" fill="none" stroke="#fff" stroke-miterlimit="10" stroke-width=".5"/>
      <line x1="9.0618" y1="109.4214" x2="10.2924" y2="110.652" fill="none" stroke="#fff" stroke-miterlimit="10" stroke-width=".5"/>
      <line x1="28.7553" y1="118.3137" x2="30.4588" y2="118.3137" fill="none" stroke="#fff" stroke-miterlimit="10" stroke-width=".5"/>
      <line x1="25.5218" y1="110.674" x2="26.7388" y2="109.457" fill="none" stroke="#fff" stroke-miterlimit="10" stroke-width=".5"/>
      <line x1="8.8358" y1="127.37" x2="10.1803" y2="126.0155" fill="none" stroke="#fff" stroke-miterlimit="10" stroke-width=".5"/>
      <line x1="17.9515" y1="107.5447" x2="17.9515" y2="105.8269" fill="none" stroke="#fff" stroke-miterlimit="10" stroke-width=".5"/>
      <line x1="25.6441" y1="126.0134" x2="26.9753" y2="127.3413" fill="none" stroke="#fff" stroke-miterlimit="10" stroke-width=".5"/>
    </g>
    <g>
      <path d="M49.5847,342.8447l.9326,5.8081h.0234l.9917-5.8081h1.6289l.9917,5.8081h.0239l.9326-5.8081h1.6289l-1.5347,7.854h-1.9004l-.9448-5.6982h-.0234l-.9443,5.6982h-1.9009l-1.5347-7.854h1.6294Z" fill="#fff"/>
      <path d="M56.9036,346.3979c.0864-.3887.228-.7134.4248-.9736s.4546-.4585.7734-.5942c.3188-.1353.71-.2031,1.1743-.2031.4883-.0073.8936.0532,1.2163.1812.3223.1284.5781.3247.7671.5889.189.2637.3228.5903.4014.9785.0786.3892.1182.8438.1182,1.3643,0,.5059-.0435.9536-.1299,1.3418-.0869.3892-.2285.7134-.4248.9736-.1968.2603-.4546.4531-.7734.5776s-.7104.187-1.1748.187c-.4878.0073-.8931-.0498-1.2158-.1704-.3228-.1211-.5781-.312-.7671-.5723s-.3228-.5864-.4014-.979c-.0791-.3921-.1182-.8452-.1182-1.3584,0-.5059.043-.9531.1299-1.3418ZM58.4265,348.5756c.0156.2568.0532.4771.1118.6602.0591.1831.1479.3262.2656.4287.1182.103.2754.1543.4722.1543.3306,0,.5591-.1611.6851-.4839.1255-.3228.189-.8545.189-1.5952s-.0635-1.2725-.189-1.5952c-.126-.3223-.3545-.4839-.6851-.4839-.1968,0-.354.0513-.4722.1543-.1177.1025-.2065.2456-.2656.4287-.0586.1836-.0962.4033-.1118.6602-.0161.2568-.0239.5352-.0239.8359s.0078.5796.0239.8359Z" fill="#fff"/>
      <path d="M64.034,344.7807v.792h.0239c.165-.2861.3657-.5151.6021-.6875.2358-.1724.5234-.2583.8618-.2583.0469,0,.0962.0015.1475.0054s.1001.0093.1475.0166v1.4517c-.0864-.0068-.1709-.0127-.2539-.0161-.0825-.0039-.167-.0059-.2534-.0059-.1421,0-.2837.0186-.4253.0552s-.2715.0972-.3896.1816c-.1177.084-.2124.1943-.2832.3296-.0708.1362-.106.3027-.106.5005v3.5532h-1.6294v-5.918h1.5581Z" fill="#fff"/>
      <path d="M68.0945,346.9916h.0239l1.6406-2.2109h1.7944l-1.8296,2.332,2.1011,3.5859h-1.7944l-1.3574-2.4312-.5786.7041v1.7271h-1.6289v-7.854h1.6289v4.147Z" fill="#fff"/>
      <path d="M73.5017,348.9609c0,.2563.0728.4639.2183.6211.1455.1582.356.2368.6318.2368.2515,0,.4521-.0586.6021-.1763.1494-.1172.2241-.293.2241-.5278,0-.1904-.0591-.3354-.1772-.4346-.1177-.0991-.2559-.1777-.4131-.2363l-1.145-.3853c-.4487-.1465-.7871-.3535-1.0151-.6216-.2285-.2676-.3423-.6104-.3423-1.0283,0-.2422.043-.4712.1299-.6875.0864-.2163.2241-.4053.4131-.5664s.4307-.2896.7261-.3853c.2949-.0952.6509-.1426,1.0684-.1426.7397,0,1.2866.1465,1.6406.4399.3545.2935.5312.7075.5312,1.2427v.2422h-1.4639c0-.3081-.0527-.5337-.1592-.6768-.1064-.1426-.2935-.2144-.5605-.2144-.2051,0-.3838.0532-.5371.1597-.1538.1064-.2305.2656-.2305.4785,0,.1465.0493.2788.1475.396.0986.1172.2852.2163.561.2969l.9795.3081c.5117.1611.8735.3721,1.0864.6323.2124.2603.3184.6143.3184,1.0615,0,.3154-.0586.5884-.1768.8193-.1182.2314-.2817.4238-.4902.5776-.2085.1543-.4565.2642-.7437.3301s-.604.0991-.9502.0991c-.4565,0-.8364-.0405-1.1392-.1211-.3032-.0806-.543-.2017-.7202-.3628-.1768-.1616-.3008-.3579-.3716-.5889s-.1064-.4893-.1064-.7754v-.209h1.4639v.1982Z" fill="#fff"/>
      <path d="M79.18,342.8447v2.541h.0234c.3145-.5059.8301-.7588,1.5464-.7588.5195,0,.9189.1318,1.1982.396.2793.2637.4189.6929.4189,1.2866v4.3892h-1.6289v-4.0811c0-.3081-.0552-.5225-.1655-.6436s-.2871-.1812-.5312-.1812c-.5742,0-.8613.3262-.8613.979v3.9268h-1.6294v-7.854h1.6294Z" fill="#fff"/>
      <path d="M83.3704,346.3979c.0864-.3887.228-.7134.4248-.9736s.4546-.4585.7734-.5942c.3188-.1353.71-.2031,1.1743-.2031.4883-.0073.8936.0532,1.2163.1812.3223.1284.5781.3247.7671.5889.189.2637.3228.5903.4014.9785.0786.3892.1182.8438.1182,1.3643,0,.5059-.0435.9536-.1299,1.3418-.0869.3892-.2285.7134-.4248.9736-.1968.2603-.4546.4531-.7734.5776s-.7104.187-1.1748.187c-.4878.0073-.8931-.0498-1.2158-.1704-.3228-.1211-.5781-.312-.7671-.5723s-.3228-.5864-.4014-.979c-.0791-.3921-.1182-.8452-.1182-1.3584,0-.5059.043-.9531.1299-1.3418ZM84.8933,348.5756c.0156.2568.0532.4771.1118.6602.0591.1831.1479.3262.2656.4287.1182.103.2754.1543.4722.1543.3306,0,.5591-.1611.6851-.4839.1255-.3228.189-.8545.189-1.5952s-.0635-1.2725-.189-1.5952c-.126-.3223-.3545-.4839-.6851-.4839-.1968,0-.354.0513-.4722.1543-.1177.1025-.2065.2456-.2656.4287-.0586.1836-.0962.4033-.1118.6602-.0161.2568-.0239.5352-.0239.8359s.0078.5796.0239.8359Z" fill="#fff"/>
      <path d="M90.6775,344.7807v.627h.0239c.1807-.2788.3838-.4785.6079-.5996s.5015-.1812.832-.1812c.6689,0,1.1611.2437,1.4761.7314.3145.4878.4722,1.2812.4722,2.3813s-.1577,1.8882-.4722,2.3647c-.3149.4771-.8071.7153-1.4761.7153-.3066,0-.5684-.0532-.7847-.1597-.2168-.106-.4116-.2769-.5845-.5112h-.0234v2.4526h-1.6294v-7.8208h1.5581ZM90.908,349.1972c.1064.3262.3403.4893.7021.4893.3545,0,.5845-.1631.6909-.4893.106-.3262.1592-.812.1592-1.4575,0-.645-.0532-1.1313-.1592-1.4575-.1064-.3262-.3364-.4893-.6909-.4893-.3618,0-.5957.1631-.7021.4893s-.1592.8125-.1592,1.4575c0,.6455.0527,1.1313.1592,1.4575Z" fill="#fff"/>
      <path d="M51.8338,353.247c-.146-.2603-.4116-.3901-.7969-.3901-.2129,0-.3877.0532-.5254.1592-.1377.1064-.2461.2788-.3247.5171s-.1338.5498-.1655.9351c-.0312.3848-.0469.8564-.0469,1.4136,0,.5938.0215,1.0742.0649,1.4409.043.3667.1099.6509.2007.8525.0903.2017.2046.3374.3423.4067.1377.0698.2969.1045.478.1045.1494,0,.2891-.0234.4189-.0713s.2422-.1431.3364-.2861c.0947-.1431.1694-.3442.2246-.605.0547-.2603.0825-.603.0825-1.0283h1.6997c0,.4253-.0352.8286-.106,1.21s-.2026.7148-.3955,1.001-.4644.5098-.8145.6709c-.3506.1611-.8052.2422-1.3638.2422-.6372,0-1.145-.0957-1.5229-.2861-.3774-.1904-.667-.4653-.8677-.8252-.2007-.3589-.3306-.7881-.3892-1.2866-.0591-.4985-.0889-1.0488-.0889-1.6499,0-.5942.0298-1.1426.0889-1.6445.0586-.5024.1885-.9331.3892-1.2925s.4902-.6401.8677-.8418c.3779-.2017.8857-.3022,1.5229-.3022.606,0,1.084.0918,1.4346.2749.3501.1831.6118.416.7847.6982.1733.2827.2812.5869.3247.9131.0435.3267.0649.6328.0649.9185h-1.6997c0-.5718-.0728-.9878-.2183-1.2485Z" fill="#fff"/>
      <path d="M54.72,355.3979c.0864-.3887.228-.7134.4248-.9736s.4546-.4585.7734-.5942c.3188-.1353.71-.2031,1.1743-.2031.4883-.0073.8936.0532,1.2163.1812.3223.1284.5781.3247.7671.5889.189.2637.3228.5903.4014.9785.0786.3892.1182.8438.1182,1.3643,0,.5059-.0435.9536-.1299,1.3418-.0869.3892-.2285.7134-.4248.9736-.1968.2603-.4546.4531-.7734.5776s-.7104.187-1.1748.187c-.4878.0073-.8931-.0498-1.2158-.1704-.3228-.1211-.5781-.312-.7671-.5723s-.3228-.5864-.4014-.979c-.0791-.3921-.1182-.8452-.1182-1.3584,0-.5059.043-.9531.1299-1.3418ZM56.243,357.5756c.0156.2568.0532.4771.1118.6602.0591.1831.1479.3262.2656.4287.1182.103.2754.1543.4722.1543.3306,0,.5591-.1611.6851-.4839.1255-.3228.189-.8545.189-1.5952s-.0635-1.2725-.189-1.5952c-.126-.3223-.3545-.4839-.6851-.4839-.1968,0-.354.0513-.4722.1543-.1177.1025-.2065.2456-.2656.4287-.0586.1836-.0962.4033-.1118.6602-.0161.2568-.0239.5352-.0239.8359s.0078.5796.0239.8359Z" fill="#fff"/>
      <path d="M61.909,353.7807v.605h.0239c.2046-.271.4346-.4658.6904-.583s.561-.1758.915-.1758c.3779,0,.6943.0806.9502.2417.2559.1616.4268.396.5137.7041h.0234c.126-.3154.3286-.5518.6079-.7095s.6118-.2363.9976-.2363c.543,0,.9424.1519,1.1982.4561.2559.3047.3838.7427.3838,1.3149v4.3008h-1.6294v-4.1362c0-.249-.0488-.4399-.1475-.5718-.0981-.1318-.2617-.1978-.4897-.1978-.2598,0-.4663.0806-.6196.2417-.1538.1616-.2305.418-.2305.77v3.894h-1.6289v-4.1362c0-.249-.0493-.4399-.1475-.5718-.0986-.1318-.2617-.1978-.4902-.1978-.2598,0-.4663.0806-.6196.2417-.1533.1616-.23.418-.23.77v3.894h-1.6294v-5.918h1.5581Z" fill="#fff"/>
      <path d="M70.739,353.7807v.627h.0239c.1807-.2788.3838-.4785.6079-.5996s.5015-.1812.832-.1812c.6689,0,1.1611.2437,1.4761.7314.3145.4878.4722,1.2812.4722,2.3813s-.1577,1.8882-.4722,2.3647c-.3149.4771-.8071.7153-1.4761.7153-.3066,0-.5684-.0532-.7847-.1597-.2168-.106-.4116-.2769-.5845-.5112h-.0234v2.4526h-1.6294v-7.8208h1.5581ZM70.9695,358.1972c.1064.3262.3403.4893.7021.4893.3545,0,.5845-.1631.6909-.4893.106-.3262.1592-.812.1592-1.4575,0-.645-.0532-1.1313-.1592-1.4575-.1064-.3262-.3364-.4893-.6909-.4893-.3618,0-.5957.1631-.7021.4893s-.1592.8125-.1592,1.4575c0,.6455.0527,1.1313.1592,1.4575Z" fill="#fff"/>
      <path d="M78.2,359.0058c-.1733.2935-.3975.5024-.6729.627-.2759.1245-.5903.187-.9448.187-.519,0-.9189-.1265-1.1982-.3794-.2793-.2534-.4189-.6768-.4189-1.2705v-4.3892h1.6294v4.0811c0,.3081.0547.5225.165.6436s.2871.1812.5312.1812c.5742,0,.8618-.3262.8618-.979v-3.9268h1.6289v5.918h-1.5581v-.6929h-.0234Z" fill="#fff"/>
      <path d="M82.8514,352.0868v1.6938h.9443v1.0342h-.9443v3.2007c0,.2349.0371.4014.1123.5005.0747.0991.23.1484.4663.1484.0625,0,.1255-.0015.1885-.0054.063-.0034.1221-.0093.1772-.0166v1.0562c-.1812,0-.356.0054-.5254.0166-.1694.0107-.3481.0166-.5371.0166-.3149,0-.5728-.0205-.7734-.0605-.2007-.0405-.354-.1211-.46-.2422-.1064-.1211-.1792-.2803-.2188-.4785-.0396-.1978-.0591-.4473-.0591-.748v-3.3877h-.8262v-1.0342h.8262v-1.6938h1.6294Z" fill="#fff"/>
      <path d="M85.7552,357.4438c0,.1758.0137.3462.0415.5112.0273.165.0723.312.1357.4399.0625.1284.1455.2314.2476.3081.1025.0771.2285.1157.3779.1157.2754,0,.4761-.0918.6021-.2749.126-.1836.2124-.4624.2598-.8364h1.4639c-.0317.6895-.2285,1.2139-.5903,1.5732-.3623.3594-.9326.5391-1.7119.5391-.5898,0-1.0503-.0918-1.3809-.2749-.3306-.1836-.5747-.4253-.7319-.7261-.1577-.3008-.2539-.6382-.2896-1.0122-.0352-.374-.0527-.748-.0527-1.1221,0-.396.0293-.7769.0884-1.144.0591-.3662.1772-.6929.354-.979.1772-.2856.4312-.5132.7617-.6816.3306-.1689.771-.2529,1.3218-.2529.4727,0,.8599.0713,1.1631.2144.3027.1431.541.3447.7144.605.1729.2603.291.5757.354.9458.063.3706.0942.7832.0942,1.2378v.3408h-3.2227v.4731ZM87.3723,355.4692c-.0234-.1724-.0649-.3188-.124-.4399s-.1416-.2129-.2476-.2749c-.1064-.0625-.2422-.0938-.4072-.0938-.1655,0-.3013.0352-.4077.1045-.106.0698-.1909.1616-.2534.2749-.0635.1138-.1084.2402-.1357.3799-.0278.1392-.0415.2788-.0415.418v.231h1.6646c-.0078-.2275-.0234-.4272-.0474-.5996Z" fill="#fff"/>
      <path d="M91.386,353.7807v.792h.0239c.165-.2861.3657-.5151.6021-.6875.2358-.1724.5234-.2583.8618-.2583.0469,0,.0962.0015.1475.0054s.1001.0093.1475.0166v1.4517c-.0864-.0068-.1709-.0127-.2539-.0161-.0825-.0039-.167-.0059-.2534-.0059-.1421,0-.2837.0186-.4253.0552s-.2715.0972-.3896.1816c-.1177.084-.2124.1943-.2832.3296-.0708.1362-.106.3027-.106.5005v3.5532h-1.6294v-5.918h1.5581Z" fill="#fff"/>
    </g>
  </g>
  <g id="Proto_2.0_Hardware" data-name="Proto 2.0 Hardware">
    <line x1="1.2483" y1="167.873" x2="23.5677" y2="167.873" fill="#e9e9ea" stroke="#fff" stroke-width="3"/>
    <line x1="30.0446" y1="247.0353" x2="52.364" y2="247.0353" fill="#e9e9ea" stroke="#fff" stroke-width="3"/>
    <line x1="1.2483" y1="247.1297" x2="23.5677" y2="247.1297" fill="#e9e9ea" stroke="#fff" stroke-width="3"/>
    <line x1="87.6939" y1="246.9973" x2="110.0133" y2="246.9973" fill="#e9e9ea" stroke="#fff" stroke-width="3"/>
    <line x1="58.9259" y1="247.0544" x2="81.2453" y2="247.0544" fill="#e9e9ea" stroke="#fff" stroke-width="3"/>
    <g>
      <path d="M23.2083,167.873c0-5.9649-4.835-10.7988-10.7998-10.7988s-10.7998,4.8339-10.7998,10.7988,4.8349,10.8008,10.7998,10.8008,10.7998-4.836,10.7998-10.8008Z" fill="#b0acb0" stroke="#959595"/>
      <path d="M23.5686,167.873c0-6.1621-4.997-10.7988-11.1601-10.7988s-11.1602,4.6367-11.1602,10.7988,4.9971,11.1601,11.1602,11.1601,11.1601-4.9961,11.1601-11.1601Z" fill="none" stroke="#c1c1c1" stroke-dasharray="1.5" stroke-width="1.5"/>
      <line x1="1.3597" y1="166.8593" x2="23.5677" y2="166.8593" fill="#e9e9ea" stroke="#737373"/>
      <line x1="1.3597" y1="170.0175" x2="23.3606" y2="170.0175" fill="#e9e9ea" stroke="#7c7c7c"/>
      <circle cx="12.4085" cy="167.873" r="7.9199" fill="#e9e9ea" stroke="#929292"/>
      <path d="M18.5286,167.873c0-3.3789-2.7402-6.1192-6.1201-6.1192s-6.1201,2.7403-6.1201,6.1192c0,3.3808,2.7402,6.1211,6.1201,6.1211s6.1201-2.7403,6.1201-6.1211Z" stroke="#b3b3b3"/>
    </g>
    <g>
      <path d="M52.0083,167.873c0-5.9649-4.835-10.7988-10.7998-10.7988s-10.7998,4.8339-10.7998,10.7988,4.8349,10.8008,10.7998,10.8008,10.7998-4.836,10.7998-10.8008Z" fill="#b0acb0" stroke="#959595"/>
      <path d="M52.3686,167.873c0-6.1621-4.997-10.7988-11.1601-10.7988s-11.1602,4.6367-11.1602,10.7988,4.9971,11.1601,11.1602,11.1601,11.1601-4.9961,11.1601-11.1601Z" fill="none" stroke="#c1c1c1" stroke-dasharray="1.5" stroke-width="1.5"/>
      <line x1="30.1597" y1="166.8593" x2="52.3677" y2="166.8593" fill="#e9e9ea" stroke="#737373"/>
      <line x1="30.1597" y1="170.0175" x2="52.1606" y2="170.0175" fill="#e9e9ea" stroke="#7c7c7c"/>
      <circle cx="41.2085" cy="167.873" r="7.9199" fill="#e9e9ea" stroke="#929292"/>
      <path d="M47.3286,167.873c0-3.3789-2.7402-6.1192-6.1201-6.1192s-6.1201,2.7403-6.1201,6.1192c0,3.3808,2.7402,6.1211,6.1201,6.1211s6.1201-2.7403,6.1201-6.1211Z" stroke="#b3b3b3"/>
    </g>
    <g>
      <path d="M80.8083,167.873c0-5.9649-4.835-10.7988-10.7998-10.7988s-10.7998,4.8339-10.7998,10.7988,4.8349,10.8008,10.7998,10.8008,10.7998-4.836,10.7998-10.8008Z" fill="#b0acb0" stroke="#959595"/>
      <path d="M81.1686,167.873c0-6.1621-4.997-10.7988-11.1601-10.7988s-11.1602,4.6367-11.1602,10.7988,4.9971,11.1601,11.1602,11.1601,11.1601-4.9961,11.1601-11.1601Z" fill="none" stroke="#c1c1c1" stroke-dasharray="1.5" stroke-width="1.5"/>
      <line x1="58.9597" y1="166.8593" x2="81.1677" y2="166.8593" fill="#e9e9ea" stroke="#737373"/>
      <line x1="58.9597" y1="170.0175" x2="80.9606" y2="170.0175" fill="#e9e9ea" stroke="#7c7c7c"/>
      <circle cx="70.0085" cy="167.873" r="7.9199" fill="#e9e9ea" stroke="#929292"/>
      <path d="M76.1286,167.873c0-3.3789-2.7402-6.1192-6.1201-6.1192s-6.1201,2.7403-6.1201,6.1192c0,3.3808,2.7402,6.1211,6.1201,6.1211s6.1201-2.7403,6.1201-6.1211Z" stroke="#b3b3b3"/>
    </g>
    <g>
      <path d="M109.6083,167.873c0-5.9649-4.835-10.7988-10.7998-10.7988s-10.7998,4.8339-10.7998,10.7988,4.8349,10.8008,10.7998,10.8008,10.7998-4.836,10.7998-10.8008Z" fill="#b0acb0" stroke="#959595"/>
      <path d="M109.9686,167.873c0-6.1621-4.997-10.7988-11.1601-10.7988s-11.1602,4.6367-11.1602,10.7988,4.9971,11.1601,11.1602,11.1601,11.1601-4.9961,11.1601-11.1601Z" fill="none" stroke="#c1c1c1" stroke-dasharray="1.5" stroke-width="1.5"/>
      <line x1="87.7597" y1="166.8593" x2="109.9677" y2="166.8593" fill="#e9e9ea" stroke="#737373"/>
      <line x1="87.7597" y1="170.0175" x2="109.7606" y2="170.0175" fill="#e9e9ea" stroke="#7c7c7c"/>
      <circle cx="98.8085" cy="167.873" r="7.9199" fill="#e9e9ea" stroke="#929292"/>
      <path d="M104.9286,167.873c0-3.3789-2.7402-6.1192-6.1201-6.1192s-6.1201,2.7403-6.1201,6.1192c0,3.3808,2.7402,6.1211,6.1201,6.1211s6.1201-2.7403,6.1201-6.1211Z" stroke="#b3b3b3"/>
    </g>
    <line x1="1.2483" y1="207.473" x2="23.5677" y2="207.473" fill="#e9e9ea" stroke="#fff" stroke-width="3"/>
    <g>
      <path d="M23.2083,207.473c0-5.9649-4.835-10.7988-10.7998-10.7988s-10.7998,4.8339-10.7998,10.7988,4.8349,10.8008,10.7998,10.8008,10.7998-4.836,10.7998-10.8008Z" fill="#b0acb0" stroke="#959595"/>
      <path d="M23.5686,207.473c0-6.1621-4.997-10.7988-11.1601-10.7988s-11.1602,4.6367-11.1602,10.7988,4.9971,11.1601,11.1602,11.1601,11.1601-4.9961,11.1601-11.1601Z" fill="none" stroke="#c1c1c1" stroke-dasharray="1.5" stroke-width="1.5"/>
      <line x1="1.3597" y1="206.4593" x2="23.5677" y2="206.4593" fill="#e9e9ea" stroke="#737373"/>
      <line x1="1.3597" y1="209.6175" x2="23.3606" y2="209.6175" fill="#e9e9ea" stroke="#7c7c7c"/>
      <circle cx="12.4085" cy="207.473" r="7.9199" fill="#e9e9ea" stroke="#929292"/>
      <path d="M18.5286,207.473c0-3.3789-2.7402-6.1192-6.1201-6.1192s-6.1201,2.7403-6.1201,6.1192c0,3.3808,2.7402,6.1211,6.1201,6.1211s6.1201-2.7403,6.1201-6.1211Z" stroke="#b3b3b3"/>
    </g>
    <g>
      <path d="M52.0083,207.473c0-5.9649-4.835-10.7988-10.7998-10.7988s-10.7998,4.8339-10.7998,10.7988,4.8349,10.8008,10.7998,10.8008,10.7998-4.836,10.7998-10.8008Z" fill="#b0acb0" stroke="#959595"/>
      <path d="M52.3686,207.473c0-6.1621-4.997-10.7988-11.1601-10.7988s-11.1602,4.6367-11.1602,10.7988,4.9971,11.1601,11.1602,11.1601,11.1601-4.9961,11.1601-11.1601Z" fill="none" stroke="#c1c1c1" stroke-dasharray="1.5" stroke-width="1.5"/>
      <line x1="30.1597" y1="206.4593" x2="52.3677" y2="206.4593" fill="#e9e9ea" stroke="#737373"/>
      <line x1="30.1597" y1="209.6175" x2="52.1606" y2="209.6175" fill="#e9e9ea" stroke="#7c7c7c"/>
      <circle cx="41.2085" cy="207.473" r="7.9199" fill="#e9e9ea" stroke="#929292"/>
      <path d="M47.3286,207.473c0-3.3789-2.7402-6.1192-6.1201-6.1192s-6.1201,2.7403-6.1201,6.1192c0,3.3808,2.7402,6.1211,6.1201,6.1211s6.1201-2.7403,6.1201-6.1211Z" stroke="#b3b3b3"/>
    </g>
    <g>
      <path d="M80.8083,207.473c0-5.9649-4.835-10.7988-10.7998-10.7988s-10.7998,4.8339-10.7998,10.7988,4.8349,10.8008,10.7998,10.8008,10.7998-4.836,10.7998-10.8008Z" fill="#b0acb0" stroke="#959595"/>
      <path d="M81.1686,207.473c0-6.1621-4.997-10.7988-11.1601-10.7988s-11.1602,4.6367-11.1602,10.7988,4.9971,11.1601,11.1602,11.1601,11.1601-4.9961,11.1601-11.1601Z" fill="none" stroke="#c1c1c1" stroke-dasharray="1.5" stroke-width="1.5"/>
      <line x1="58.9597" y1="206.4593" x2="81.1677" y2="206.4593" fill="#e9e9ea" stroke="#737373"/>
      <line x1="58.9597" y1="209.6175" x2="80.9606" y2="209.6175" fill="#e9e9ea" stroke="#7c7c7c"/>
      <circle cx="70.0085" cy="207.473" r="7.9199" fill="#e9e9ea" stroke="#929292"/>
      <path d="M76.1286,207.473c0-3.3789-2.7402-6.1192-6.1201-6.1192s-6.1201,2.7403-6.1201,6.1192c0,3.3808,2.7402,6.1211,6.1201,6.1211s6.1201-2.7403,6.1201-6.1211Z" stroke="#b3b3b3"/>
    </g>
    <g>
      <path d="M109.6083,207.473c0-5.9649-4.835-10.7988-10.7998-10.7988s-10.7998,4.8339-10.7998,10.7988,4.8349,10.8008,10.7998,10.8008,10.7998-4.836,10.7998-10.8008Z" fill="#b0acb0" stroke="#959595"/>
      <path d="M109.9686,207.473c0-6.1621-4.997-10.7988-11.1601-10.7988s-11.1602,4.6367-11.1602,10.7988,4.9971,11.1601,11.1602,11.1601,11.1601-4.9961,11.1601-11.1601Z" fill="none" stroke="#c1c1c1" stroke-dasharray="1.5" stroke-width="1.5"/>
      <line x1="87.7597" y1="206.4593" x2="109.9677" y2="206.4593" fill="#e9e9ea" stroke="#737373"/>
      <line x1="87.7597" y1="209.6175" x2="109.7606" y2="209.6175" fill="#e9e9ea" stroke="#7c7c7c"/>
      <circle cx="98.8085" cy="207.473" r="7.9199" fill="#e9e9ea" stroke="#929292"/>
      <path d="M104.9286,207.473c0-3.3789-2.7402-6.1192-6.1201-6.1192s-6.1201,2.7403-6.1201,6.1192c0,3.3808,2.7402,6.1211,6.1201,6.1211s6.1201-2.7403,6.1201-6.1211Z" stroke="#b3b3b3"/>
    </g>
    <g>
      <path d="M52.0046,247.0353c0-5.9649-4.835-10.7988-10.7998-10.7988s-10.7998,4.8339-10.7998,10.7988,4.8349,10.8008,10.7998,10.8008,10.7998-4.836,10.7998-10.8008Z" fill="#b0acb0" stroke="#959595"/>
      <path d="M52.3649,247.0353c0-6.1621-4.997-10.7988-11.1601-10.7988s-11.1602,4.6367-11.1602,10.7988,4.9971,11.1601,11.1602,11.1601,11.1601-4.9961,11.1601-11.1601Z" fill="none" stroke="#c1c1c1" stroke-dasharray="1.5" stroke-width="1.5"/>
      <line x1="30.156" y1="246.0216" x2="52.364" y2="246.0216" fill="#e9e9ea" stroke="#737373"/>
      <line x1="30.156" y1="249.1798" x2="52.1569" y2="249.1798" fill="#e9e9ea" stroke="#7c7c7c"/>
      <circle cx="41.2048" cy="247.0353" r="7.9199" fill="#e9e9ea" stroke="#929292"/>
      <path d="M47.3249,247.0353c0-3.3789-2.7402-6.1192-6.1201-6.1192s-6.1201,2.7403-6.1201,6.1192c0,3.3808,2.7402,6.1211,6.1201,6.1211s6.1201-2.7403,6.1201-6.1211Z" stroke="#b3b3b3"/>
    </g>
    <g>
      <path d="M23.2083,247.1297c0-5.9649-4.835-10.7988-10.7998-10.7988s-10.7998,4.8339-10.7998,10.7988,4.8349,10.8008,10.7998,10.8008,10.7998-4.836,10.7998-10.8008Z" fill="#b0acb0" stroke="#959595"/>
      <path d="M23.5686,247.1297c0-6.1621-4.997-10.7988-11.1601-10.7988s-11.1602,4.6367-11.1602,10.7988,4.9971,11.1601,11.1602,11.1601,11.1601-4.9961,11.1601-11.1601Z" fill="none" stroke="#c1c1c1" stroke-dasharray="1.5" stroke-width="1.5"/>
      <line x1="1.3597" y1="246.116" x2="23.5677" y2="246.116" fill="#e9e9ea" stroke="#737373"/>
      <line x1="1.3597" y1="249.2742" x2="23.3606" y2="249.2742" fill="#e9e9ea" stroke="#7c7c7c"/>
      <circle cx="12.4085" cy="247.1297" r="7.9199" fill="#e9e9ea" stroke="#929292"/>
      <path d="M18.5286,247.1297c0-3.3789-2.7402-6.1192-6.1201-6.1192s-6.1201,2.7403-6.1201,6.1192c0,3.3808,2.7402,6.1211,6.1201,6.1211s6.1201-2.7403,6.1201-6.1211Z" stroke="#b3b3b3"/>
    </g>
    <g>
      <path d="M109.6539,246.9973c0-5.9649-4.835-10.7988-10.7998-10.7988s-10.7998,4.8339-10.7998,10.7988,4.8349,10.8008,10.7998,10.8008,10.7998-4.836,10.7998-10.8008Z" fill="#b0acb0" stroke="#959595"/>
      <path d="M110.0142,246.9973c0-6.1621-4.997-10.7988-11.1601-10.7988s-11.1602,4.6367-11.1602,10.7988,4.9971,11.1601,11.1602,11.1601,11.1601-4.9961,11.1601-11.1601Z" fill="none" stroke="#c1c1c1" stroke-dasharray="1.5" stroke-width="1.5"/>
      <line x1="87.8053" y1="245.9836" x2="110.0133" y2="245.9836" fill="#e9e9ea" stroke="#737373"/>
      <line x1="87.8053" y1="249.1418" x2="109.8062" y2="249.1418" fill="#e9e9ea" stroke="#7c7c7c"/>
      <circle cx="98.8541" cy="246.9973" r="7.9199" fill="#e9e9ea" stroke="#929292"/>
      <path d="M104.9742,246.9973c0-3.3789-2.7402-6.1192-6.1201-6.1192s-6.1201,2.7403-6.1201,6.1192c0,3.3808,2.7402,6.1211,6.1201,6.1211s6.1201-2.7403,6.1201-6.1211Z" stroke="#b3b3b3"/>
    </g>
    <g>
      <path d="M80.8859,247.0544c0-5.9649-4.835-10.7988-10.7998-10.7988s-10.7998,4.8339-10.7998,10.7988,4.8349,10.8008,10.7998,10.8008,10.7998-4.836,10.7998-10.8008Z" fill="#b0acb0" stroke="#959595"/>
      <path d="M81.2462,247.0544c0-6.1621-4.997-10.7988-11.1601-10.7988s-11.1602,4.6367-11.1602,10.7988,4.9971,11.1601,11.1602,11.1601,11.1601-4.9961,11.1601-11.1601Z" fill="none" stroke="#c1c1c1" stroke-dasharray="1.5" stroke-width="1.5"/>
      <line x1="59.0373" y1="246.0407" x2="81.2453" y2="246.0407" fill="#e9e9ea" stroke="#737373"/>
      <line x1="59.0373" y1="249.1989" x2="81.0382" y2="249.1989" fill="#e9e9ea" stroke="#7c7c7c"/>
      <circle cx="70.0861" cy="247.0544" r="7.9199" fill="#e9e9ea" stroke="#929292"/>
      <path d="M76.2062,247.0544c0-3.3789-2.7402-6.1192-6.1201-6.1192s-6.1201,2.7403-6.1201,6.1192c0,3.3808,2.7402,6.1211,6.1201,6.1211s6.1201-2.7403,6.1201-6.1211Z" stroke="#b3b3b3"/>
    </g>
    <path d="M86.4531,118.3302c0,3.7774,3.0625,6.8404,6.8398,6.8404s6.8398-3.063,6.8398-6.8404-3.0625-6.8398-6.8398-6.8398-6.8398,3.0625-6.8398,6.8398Z" stroke="gray" stroke-width="3"/>
    <g>
      <circle cx="17.9617" cy="118.7145" r="8.5039" fill="#231f20"/>
      <line x1="15.1532" y1="117.0653" x2="10.6265" y2="114.5436" fill="none" stroke="#fcfcfc" stroke-miterlimit="10" stroke-width="2"/>
    </g>
    <g>
      <circle cx="55.6915" cy="118.431" r="8.5039" fill="#231f20"/>
      <line x1="57.9631" y1="116.0971" x2="61.492" y2="112.3028" fill="none" stroke="#fcfcfc" stroke-miterlimit="10" stroke-width="2"/>
    </g>
    <g>
      <line x1="56.2031" y1="41.9436" x2="56.2031" y2="26.1536" fill="none" stroke="#fcfcfc" stroke-miterlimit="10" stroke-width="3"/>
      <path d="M20.4463,54.847c0,19.5722,15.8603,35.4355,35.4345,35.4355s35.4327-15.8633,35.4327-35.4355-15.8682-35.4307-35.4327-35.4307-35.4345,15.8594-35.4345,35.4307" fill="#231f20"/>
      <path d="M50.539,26.5892c-2.9355,3.3642-8.9785,6.2861-13.4492,6.4755-4.4609.1895-7.457,3.9356-6.6484,8.334.8144,4.4024-.6777,10.9492-3.3184,14.5615-2.6367,3.6094-1.5703,8.2774,2.375,10.3916,3.9326,2.1084,8.125,7.3604,9.3028,11.6709,1.1777,4.3125,5.498,6.3926,9.6132,4.626,4.0899-1.7646,10.8086-1.7646,14.9151,0,4.1055,1.7666,8.4316-.3135,9.6015-4.626,1.1895-4.3105,5.3731-9.5625,9.3086-11.6709,3.9502-2.1142,5.0176-6.7822,2.3789-10.3916-2.6367-3.6123-4.1289-10.1591-3.3203-14.5615.8164-4.3984-2.1845-8.1445-6.6543-8.334-4.4599-.1894-10.5117-3.1113-13.4394-6.4755-1.4688-1.6885-3.4004-2.5342-5.3311-2.5342-1.9326,0-3.8633.8457-5.334,2.5342" fill="none" stroke="#6d6e71" stroke-miterlimit="10" stroke-width="2"/>
    </g>
    <circle cx="6.7142" cy="309.2807" r="4.252" fill="#f80012"/>
    <circle cx="19.952" cy="309.309" r="4.252" fill="#1d1d1b"/>
    <circle cx="6.6859" cy="322.2634" r="4.252" fill="#1d1d1b"/>
    <circle cx="19.952" cy="322.235" r="4.252" fill="#f80012"/>
    <circle cx="6.7142" cy="335.1894" r="4.252" fill="#f80012"/>
    <circle cx="19.9237" cy="335.1894" r="4.252" fill="#f80012"/>
    <rect x="-3.0195" y="279.6884" width="25.0583" height="8.674" rx="3.4754" ry="3.4754" transform="translate(-274.5159 293.535) rotate(-90)" fill="#231f20" stroke="#808285" stroke-width=".5"/>
    <rect x="47.5034" y="327.8139" width="36.4521" height="6.6872" fill="#231f20"/>
    <circle cx="99.7123" cy="332.8023" r="5.6693" fill="#1d1d1b"/>
    <g>
      <circle cx="21.3305" cy="8.329" r="5.3858" fill="#323031"/>
      <rect x="20.4102" y="4.2133" width="1.8405" height="8.2313" transform="translate(31.94 28.6218) rotate(-138.9307)" fill="#58595b"/>
      <rect x="20.4102" y="4.2133" width="1.8405" height="8.2313" transform="translate(41.6234 -2.2805) rotate(131.0693)" fill="#58595b"/>
    </g>
    <g>
      <circle cx="21.3689" cy="355.5961" r="5.3858" fill="#323031"/>
      <rect x="20.4487" y="351.4804" width="1.8405" height="8.2313" transform="translate(-49.6564 6.5107) rotate(-8.0615)" fill="#58595b"/>
      <rect x="20.4487" y="351.4804" width="1.8405" height="8.2313" transform="translate(-327.7165 426.6214) rotate(-98.0615)" fill="#58595b"/>
    </g>
    <polygon points="101.9298 125.9255 91.0569 129.5342 82.4953 121.9224 84.8064 110.7018 95.6793 107.0931 104.241 114.7049 101.9298 125.9255" fill="#6d6e71"/>
    <path d="M86.3115,117.9876c0,3.7774,3.0625,6.8404,6.8398,6.8404s6.8398-3.063,6.8398-6.8404-3.0625-6.8398-6.8398-6.8398-6.8398,3.0625-6.8398,6.8398Z" stroke="gray" stroke-width="3"/>
    <path d="M96.8681,109.3166c0-2.3858-1.1895-4.3633-3.5752-4.3633s-3.4248,1.79-3.4248,4.1758l.1846,8.539h0c0,1.7891,1.4502,3.2403,3.2402,3.2403s3.2402-1.4512,3.2402-3.2403h0l.335-8.3515" fill="#cdcccb" stroke="#000"/>
  </g>
</svg>